<svg width="270" height="110" viewBox="0 0 270 110" fill="none" xmlns="http://www.w3.org/2000/svg">
<path fill-rule="evenodd" clip-rule="evenodd" d="M138.517 53.598H126.538V92.5467H138.517V76.2972C138.508 74.5297 138.615 72.7635 138.838 71.0099C139.002 69.5495 139.478 68.1414 140.233 66.8809C140.981 65.7109 142.048 64.7798 143.308 64.1977C144.642 63.556 146.447 63.2352 148.725 63.2352C149.594 63.2324 150.462 63.2993 151.32 63.4352C152.167 63.5759 153.002 63.7764 153.82 64.0352V53.0355C153.193 52.8696 152.551 52.7622 151.904 52.7147C151.208 52.6647 150.516 52.6355 149.821 52.6355C147.16 52.6355 144.95 53.2369 143.192 54.4396C141.433 55.6424 139.917 57.4479 138.642 59.8561H138.479L138.517 53.598ZM171.849 31.9612H159.879V92.5467H170.899V87.4177H171.061C171.61 88.1902 172.238 88.9025 172.936 89.5426C173.761 90.3026 174.673 90.9615 175.653 91.5051C176.728 92.108 177.865 92.5914 179.045 92.9467C180.315 93.3284 181.635 93.518 182.961 93.5092C185.643 93.5457 188.304 93.0412 190.786 92.0259C193.068 91.0804 195.123 89.6601 196.815 87.8594C198.523 86.0192 199.841 83.8521 200.69 81.4887C201.618 78.8919 202.078 76.1508 202.048 73.3932C202.055 70.7387 201.633 68.1006 200.798 65.5809C200.023 63.1882 198.835 60.9501 197.286 58.9687C195.782 57.0564 193.889 55.4856 191.732 54.3605C189.435 53.1835 186.883 52.591 184.303 52.6355C181.924 52.6151 179.56 53.0085 177.315 53.798C175.185 54.5544 173.334 55.9371 172.003 57.7645H171.845L171.849 31.9612ZM173.407 80.2055C171.741 78.3888 170.907 76.0111 170.907 73.0724C170.907 70.1336 171.741 67.7559 173.407 65.9393C175.074 64.1227 177.435 63.2143 180.49 63.2143C183.546 63.2143 185.907 64.1227 187.573 65.9393C189.24 67.7559 190.073 70.1336 190.073 73.0724C190.073 76.0111 189.24 78.3888 187.573 80.2055C185.907 82.0221 183.546 82.9304 180.49 82.9304C177.435 82.9304 175.077 82.0221 173.416 80.2055H173.407ZM246.263 63.2143H256.804V53.598H246.263V42.0734H234.289V53.6147H226.622V63.231H234.289V81.7429C234.236 83.6174 234.605 85.4797 235.368 87.1927C236.046 88.6392 237.076 89.8927 238.363 90.8384C239.705 91.7977 241.221 92.4869 242.826 92.8675C244.656 93.3086 246.534 93.5241 248.417 93.5092C249.832 93.5062 251.245 93.4255 252.65 93.2675C254.073 93.115 255.472 92.7918 256.817 92.305V82.3054C256.143 82.8431 255.323 83.1641 254.463 83.2262C253.634 83.3432 252.8 83.41 251.963 83.4262C250.906 83.4697 249.852 83.2923 248.867 82.9054C248.15 82.6086 247.548 82.0884 247.151 81.4221C246.757 80.7184 246.511 79.9412 246.43 79.1388C246.318 78.1707 246.265 77.1968 246.272 76.2223L246.263 63.2143ZM209.423 36.4069C208.293 37.5427 207.591 39.0351 207.437 40.63C207.284 42.2249 207.688 43.8237 208.58 45.1543C209.473 46.4849 210.799 47.465 212.333 47.9278C213.867 48.3906 215.514 48.3075 216.994 47.6926C218.473 47.0777 219.694 45.969 220.448 44.5552C221.202 43.1415 221.443 41.5101 221.129 39.9388C220.816 38.3675 219.968 36.9533 218.729 35.9371C217.49 34.9209 215.937 34.3655 214.335 34.3653C213.421 34.3541 212.513 34.5294 211.669 34.8804C210.824 35.2314 210.06 35.7508 209.423 36.4069ZM220.327 53.598H208.344V92.5467H220.327V53.598Z" fill="white"/>
<path fill-rule="evenodd" clip-rule="evenodd" d="M119.047 49.0982C118.081 41.7948 115.336 34.8402 111.054 28.8452C106.773 22.8503 101.085 17.9982 94.4895 14.7152C87.8945 11.4322 80.5943 9.81863 73.2299 10.0162C65.8655 10.2137 58.6623 12.2164 52.2527 15.8482C45.8432 19.4801 40.4233 24.6301 36.4692 30.846C32.515 37.0619 30.1474 44.1536 29.5744 51.4983C29.0013 58.843 30.2403 66.216 33.1825 72.97C36.1248 79.724 40.6802 85.6523 46.4489 90.2343C50.8655 88.2677 55.6945 85.9719 60.8235 83.397C55.6358 80.9116 51.2279 77.0528 48.0782 72.2395C44.9284 67.4262 43.157 61.8421 42.9562 56.0933C42.7554 50.3445 44.1328 44.6505 46.9391 39.6291C49.7454 34.6078 53.8733 30.4509 58.8749 27.6095C63.8764 24.7682 69.5607 23.3509 75.3108 23.5114C81.0608 23.6719 86.6571 25.4042 91.4924 28.5202C96.3276 31.6362 100.217 36.017 102.739 41.1871C105.261 46.3572 106.318 52.1192 105.797 57.8479C110.547 54.8355 114.988 51.9022 119.047 49.0982ZM119.426 54.198C114.88 57.5604 109.843 61.0436 104.426 64.556C102.007 72.1442 96.8025 78.534 89.861 82.4388C82.9194 86.3437 74.7562 87.4736 67.0149 85.6011C61.0776 88.4552 55.4445 90.9259 50.2863 92.9717C57.147 97.3349 65.0617 99.7578 73.1892 99.9828C81.3167 100.208 89.3533 98.2265 96.4448 94.2495C103.536 90.2725 109.418 84.4484 113.464 77.3962C117.511 70.3441 119.571 62.3273 119.426 54.198Z" fill="white"/>
<path fill-rule="evenodd" clip-rule="evenodd" d="M121.709 17.5992C122.318 17.5992 122.913 17.4186 123.42 17.0803C123.926 16.742 124.321 16.2611 124.554 15.6984C124.787 15.1358 124.848 14.5167 124.729 13.9194C124.61 13.3222 124.317 12.7735 123.886 12.3429C123.456 11.9123 122.907 11.619 122.31 11.5002C121.712 11.3814 121.093 11.4424 120.531 11.6755C119.968 11.9085 119.487 12.3032 119.149 12.8095C118.81 13.3158 118.63 13.9112 118.63 14.5201C118.629 14.9246 118.709 15.3253 118.863 15.6991C119.018 16.0729 119.244 16.4126 119.531 16.6986C119.817 16.9846 120.156 17.2114 120.53 17.3659C120.904 17.5205 121.304 17.5998 121.709 17.5992Z" fill="white"/>
<path fill-rule="evenodd" clip-rule="evenodd" d="M18.1041 69.9142C18.9163 69.9142 19.7102 69.6731 20.3854 69.2216C21.0606 68.7701 21.5866 68.1284 21.8969 67.3778C22.2071 66.6271 22.2877 65.8013 22.1283 65.0049C21.9689 64.2084 21.5768 63.4772 21.0016 62.9037C20.4264 62.3303 19.6939 61.9404 18.897 61.7834C18.1001 61.6265 17.2745 61.7095 16.5248 62.0221C15.7751 62.3346 15.135 62.8626 14.6856 63.5391C14.2361 64.2157 13.9975 65.0104 14 65.8226C14.0033 66.9089 14.4372 67.9496 15.2065 68.7165C15.9758 69.4835 17.0178 69.9142 18.1041 69.9142Z" fill="white"/>
<path fill-rule="evenodd" clip-rule="evenodd" d="M87.4143 45.7399C91.8475 43.29 96.164 40.9651 100.33 38.8193C100.485 39.0693 100.651 39.3652 100.826 39.6985C96.6973 41.8567 92.3808 44.19 87.9476 46.6441L87.4143 45.7399ZM144.996 23.8782C143.017 20.4491 131.017 24.0907 114.034 32.0279C114.193 32.2904 114.351 32.5612 114.501 32.8362C130.771 25.0906 142.125 21.3616 143.567 24.3615C145.833 28.2864 119.817 47.5441 85.4852 67.3726C51.153 87.2011 21.4623 100.092 19.1957 96.1674C17.9041 93.8342 24.2913 87.4761 30.0287 82.4179C21.7664 89.0843 17.4332 94.2217 18.8582 96.6883C22.0914 102.292 53.3862 91.2718 88.2226 71.1724C123.059 51.0731 148.246 29.4821 144.996 23.8782Z" fill="white"/>
<path d="M83.3353 48.9982C82.6012 47.7384 82.3267 46.263 82.5588 44.8236C82.7909 43.3842 83.5151 42.0698 84.6079 41.1046C85.7007 40.1394 87.0944 39.5831 88.5515 39.5306C90.0086 39.4781 91.4388 39.9327 92.5982 40.8168C93.7576 41.7008 94.5745 42.9597 94.9095 44.3787C95.2445 45.7978 95.077 47.2891 94.4354 48.5983C93.7939 49.9076 92.718 50.9539 91.3913 51.5586C90.0646 52.1634 88.5692 52.2892 87.1601 51.9147C86.3577 51.7144 85.6046 51.3523 84.947 50.8508C84.2893 50.3494 83.7409 49.7189 83.3353 48.9982Z" fill="white"/>
</svg>